<svg width="29" height="19" viewBox="0 0 29 19" fill="none" xmlns="http://www.w3.org/2000/svg">
<path d="M18.5121 14.2376C19.3 14.2376 20.0802 14.0824 20.8082 13.7808C21.5362 13.4793 22.1976 13.0374 22.7547 12.4802C23.3119 11.9231 23.7538 11.2616 24.0554 10.5337C24.3569 9.80571 24.5121 9.0255 24.5121 8.23756C24.5121 7.44963 24.3569 6.66942 24.0554 5.94146C23.7538 5.21351 23.3119 4.55207 22.7547 3.99492C22.1976 3.43777 21.5362 2.99581 20.8082 2.69429C20.0802 2.39276 19.3 2.23756 18.5121 2.23756C16.9208 2.23756 15.3947 2.8697 14.2695 3.99492C13.1442 5.12014 12.5121 6.64627 12.5121 8.23756C12.5121 9.82886 13.1442 11.355 14.2695 12.4802C15.3947 13.6054 16.9208 14.2376 18.5121 14.2376ZM24.8321 13.1436L28.4121 16.7236C28.5075 16.8159 28.5836 16.9263 28.636 17.0483C28.6883 17.1704 28.7158 17.3016 28.7168 17.4344C28.7179 17.5672 28.6925 17.6988 28.6421 17.8217C28.5918 17.9445 28.5174 18.0561 28.4235 18.15C28.3295 18.2438 28.2178 18.318 28.0949 18.3682C27.972 18.4183 27.8403 18.4436 27.7075 18.4423C27.5747 18.4411 27.4435 18.4134 27.3215 18.3609C27.1996 18.3084 27.0893 18.2321 26.9971 18.1366L23.4171 14.5566C21.8096 15.8044 19.7869 16.3927 17.7609 16.2018C15.7348 16.0108 13.8577 15.0549 12.5117 13.5286C11.1656 12.0024 10.4518 10.0205 10.5155 7.98649C10.5793 5.95247 11.4158 4.01919 12.8547 2.58021C14.2937 1.14123 16.227 0.304731 18.261 0.24099C20.295 0.177248 22.2769 0.89106 23.8032 2.23711C25.3294 3.58317 26.2853 5.46028 26.4763 7.48632C26.6673 9.51236 26.0789 11.535 24.8311 13.1426L24.8321 13.1436Z" fill="#181725"/>
<rect x="0.367554" y="0.237061" width="8.85499" height="2.39923" rx="1.19961" fill="#181725"/>
<rect x="0.367554" y="7.67529" width="6.46414" height="2.39923" rx="1.19961" fill="#181725"/>
<rect x="0.367554" y="15.1139" width="8.85499" height="2.39923" rx="1.19961" fill="#181725"/>
</svg>
